<?xml version="1.0" ?><!DOCTYPE svg  PUBLIC '-//W3C//DTD SVG 1.1//EN'  'http://www.w3.org/Graphics/SVG/1.1/DTD/svg11.dtd'><svg height="512px" style="enable-background:new 0 0 512 512;" version="1.1" viewBox="0 0 512 512" width="512px" xml:space="preserve" xmlns="http://www.w3.org/2000/svg" xmlns:xlink="http://www.w3.org/1999/xlink"><g id="_x36_6-photo"><g><g><path d="M136.699,136.375L17.397,256h178.955l44.738-14.951L136.699,136.375z M136.699,136.375" style="fill:#FFC107;"/><path d="M136.699,136.375L241.09,241.049l14.912-44.861v-59.813H136.699z M136.699,136.375" style="fill:#FFA000;"/><path d="M136.699,375.621L256.002,495.25V315.813l-14.912-44.859L136.699,375.621z M136.699,375.621" style="fill:#5ACF5F;"/><path d="M136.699,375.621L241.09,270.953L196.352,256h-59.653V375.621z M136.699,375.621" style="fill:#46B34C;"/><path d="M375.299,375.621L494.604,256H315.648l-44.736,14.953L375.299,375.621z M375.299,375.621" style="fill:#2299F8;"/><path d="M375.299,375.621L270.912,270.953l-14.91,44.859v59.809H375.299z M375.299,375.621" style="fill:#1B80E4;"/><path d="M375.299,136.375L256.002,16.75v179.437l14.91,44.861L375.299,136.375z M375.299,136.375" style="fill:#F84437;"/><path d="M375.299,136.375L270.912,241.049L315.648,256h59.65V136.375z M375.299,136.375" style="fill:#B82ED0;"/></g></g></g><g id="Layer_1"/></svg>